Coordinates
nRows=12
nColumns=34

# SIMM Motion File Header:
name Coordinates
datacolumns 34
datarows 12
otherdata 1
range 0.45000000 0.46100000

Units are S.I. units (second, meters, Newtons, ...)
Angles are in degrees.

endheader
time	pelvis_tz	pelvis_tx	pelvis_ty	pelvis_tilt	pelvis_list	pelvis_rotation	hip_flexion_r	hip_adduction_r	hip_rotation_r	knee_r_tx	knee_r_ty	knee_angle_r	tib_pat_r_tx	tib_pat_r_ty	tib_pat_r_r1	ankle_angle_r	subtalar_angle_r	mtp_angle_r	hip_flexion_l	hip_adduction_l	hip_rotation_l	knee_l_tx	knee_l_ty	knee_angle_l	tib_pat_l_tx	tib_pat_l_ty	tib_pat_l_r1	ankle_angle_l	subtalar_angle_l	mtp_angle_l	lumbar_extension	lumbar_bending	lumbar_rotation
      0.45000000	     -0.25272412	      0.28529880	      0.91293750	     -1.28621680	     -0.18733236	     -2.52010790	     -8.84257922	      2.23316984	     16.76337967	     -0.00420444	     -0.41343974	     -4.12290960	      0.04614067	     -0.02114597	      4.43739488	     16.18523316	     -0.00000000	      0.00000000	     24.16223349	      0.51566088	      6.38353405	     -0.00155168	     -0.41471200	    -17.69434025	      0.04420235	     -0.02056618	     12.89220824	      3.42647097	      0.00000000	      0.00000000	     -4.83541870	      4.84688999	      2.63398809
      0.45100000	     -0.25278507	      0.28624914	      0.91270675	     -1.28069269	     -0.23886983	     -2.52305011	     -8.90074207	      2.28847979	     16.78470219	     -0.00419897	     -0.41344293	     -4.16284465	      0.04613606	     -0.02114439	      4.47582418	     16.24598602	     -0.00000000	      0.00000000	     24.14846194	      0.46210185	      6.47839106	     -0.00162480	     -0.41467561	    -17.37036543	      0.04424685	     -0.02057707	     12.77810765	      3.38280598	      0.00000000	      0.00000000	     -4.86183775	      4.91099238	      2.63389426
      0.45200000	     -0.25284494	      0.28720059	      0.91247603	     -1.27496846	     -0.28998676	     -2.52638595	     -8.95876431	      2.34342151	     16.80623557	     -0.00419338	     -0.41344618	     -4.20358698	      0.04613133	     -0.02114277	      4.51493234	     16.30657919	     -0.00000000	      0.00000000	     24.13412388	      0.40860946	      6.57240743	     -0.00169774	     -0.41463983	    -17.04824721	      0.04429092	     -0.02058795	     12.66135055	      3.33863794	      0.00000000	      0.00000000	     -4.88844233	      4.97437279	      2.63411826
      0.45300000	     -0.25290371	      0.28815318	      0.91224537	     -1.26904594	     -0.34066320	     -2.53011719	     -9.01664353	      2.39797368	     16.82796671	     -0.00418765	     -0.41344950	     -4.24513649	      0.04612647	     -0.02114111	      4.55471353	     16.36701246	     -0.00000000	      0.00000000	     24.11923520	      0.35520539	      6.66554959	     -0.00177043	     -0.41460467	    -16.72806225	      0.04433457	     -0.02059880	     12.54195326	      3.29397261	      0.00000000	      0.00000000	     -4.91522671	      5.03700472	      2.63466502
      0.45400000	     -0.25296136	      0.28910692	      0.91201481	     -1.26292721	     -0.39087935	     -2.53424535	     -9.07437730	      2.45211510	     16.84988246	     -0.00418181	     -0.41345289	     -4.28749263	      0.04612148	     -0.02113940	      4.59516140	     16.42728589	     -0.00000000	      0.00000000	     24.10381207	      0.30191154	      6.75778464	     -0.00184278	     -0.41457010	    -16.40988710	      0.04437784	     -0.02060965	     12.41993739	      3.24881565	      0.00000000	      0.00000000	     -4.94218486	      5.09886202	      2.63553933
      0.45500000	     -0.25301787	      0.29006181	      0.91178438	     -1.25661454	     -0.44061551	     -2.53877164	     -9.13196318	      2.50582471	     16.87196963	     -0.00417583	     -0.41345635	     -4.33065457	      0.04611637	     -0.02113765	      4.63626920	     16.48739991	     -0.00000000	      0.00000000	     24.08787093	      0.24875012	      6.84908032	     -0.00191472	     -0.41453613	    -16.09379820	      0.04442076	     -0.02062051	     12.29532995	      3.20317270	      0.00000000	      0.00000000	     -4.96931048	      5.15991879	      2.63674586
      0.45600000	     -0.25307325	      0.29101789	      0.91155411	     -1.25011040	     -0.48985212	     -2.54369702	     -9.18939863	      2.55908157	     16.89421492	     -0.00416972	     -0.41345987	     -4.37462130	      0.04611112	     -0.02113585	      4.67802999	     16.54735538	     -0.00000000	      0.00000000	     24.07142851	      0.19574358	      6.93940510	     -0.00198618	     -0.41450274	    -15.77987178	      0.04446334	     -0.02063138	     12.16816334	      3.15704932	      0.00000000	      0.00000000	     -4.99659696	      5.22014943	      2.63828915
      0.45700000	     -0.25312748	      0.29197516	      0.91132405	     -1.24341748	     -0.53856972	     -2.54902215	     -9.24668094	      2.61186488	     16.91660490	     -0.00416349	     -0.41346347	     -4.41939182	      0.04610575	     -0.02113402	      4.72043669	     16.60715364	     -0.00000000	      0.00000000	     24.05450178	      0.14291465	      7.02872813	     -0.00205707	     -0.41446993	    -15.46818380	      0.04450560	     -0.02064227	     12.03847539	      3.11045100	      0.00000000	      0.00000000	     -5.02403737	      5.27952863	      2.64017363
      0.45800000	     -0.25318055	      0.29293364	      0.91109423	     -1.23653864	     -0.58674897	     -2.55474740	     -9.30380718	      2.66415402	     16.93912602	     -0.00415712	     -0.41346713	     -4.46496526	      0.04610023	     -0.02113213	      4.76348231	     16.66679660	     -0.00000000	      0.00000000	     24.03710795	      0.09028634	      7.11701931	     -0.00212734	     -0.41443769	    -15.15880997	      0.04454759	     -0.02065319	     11.90630941	      3.06338314	      0.00000000	      0.00000000	     -5.05162451	      5.33803130	      2.64240361
      0.45900000	     -0.25323246	      0.29389334	      0.91086467	     -1.22947697	     -0.63437061	     -2.56087285	     -9.36077416	      2.71592854	     16.96176455	     -0.00415063	     -0.41347085	     -4.51134105	      0.04609459	     -0.02113020	      4.80716001	     16.72628682	     -0.00000000	      0.00000000	     24.01926447	      0.03788197	      7.20424930	     -0.00219691	     -0.41440601	    -14.85182563	      0.04458930	     -0.02066414	     11.77171413	      3.01585107	      0.00000000	      0.00000000	     -5.07935089	      5.39563263	      2.64498328
      0.46000000	     -0.25328319	      0.29485428	      0.91063542	     -1.22223574	     -0.68141549	     -2.56739825	     -9.41757834	      2.76716821	     16.98450659	     -0.00414400	     -0.41347465	     -4.55851896	      0.04608881	     -0.02112823	      4.85146323	     16.78562750	     -0.00000000	      0.00000000	     24.00098900	     -0.01427490	      7.29038955	     -0.00226572	     -0.41437488	    -14.54730573	      0.04463076	     -0.02067514	     11.63474376	      2.96786001	      0.00000000	      0.00000000	     -5.10720871	      5.45230804	      2.64791674
      0.46100000	     -0.25333275	      0.29581648	      0.91040651	     -1.21481840	     -0.72786457	     -2.57432308	     -9.47421593	      2.81785296	     17.00733808	     -0.00413724	     -0.41347852	     -4.60649913	      0.04608289	     -0.02112621	      4.89638561	     16.84482252	     -0.00000000	      0.00000000	     23.98229940	     -0.06616042	      7.37541231	     -0.00233371	     -0.41434429	    -14.24532479	      0.04467199	     -0.02068618	     11.49545793	      2.91941511	      0.00000000	      0.00000000	     -5.13518988	      5.50803323	      2.65120793
